# Blender v2.78 (sub 0) OBJ File: 'AUTO_STATION.blend'
# www.blender.org
mtllib AUTO_STATION.mtl
o Cube.002_Cube.001
v -2.828800 4.706964 -1.191526
v -2.828800 7.858377 -1.191526
v -2.828800 7.858377 -4.342938
v -2.828800 4.706964 -4.342939
v 0.322614 7.858377 -4.342938
v 0.322614 4.706964 -4.342939
v 4.790505 7.858377 -4.342938
v 4.790505 4.706964 -4.342939
v 0.322614 7.858377 -1.191526
v -2.617298 7.325274 -1.191526
v 0.111111 7.325274 -1.191526
v 0.322614 4.706964 -1.191526
v 3.206898 4.706964 -1.191210
v 2.911156 5.958876 -1.191242
v 0.618356 5.958876 -1.191493
v 4.507139 4.706964 -2.491451
v 3.206898 7.858377 -1.191210
v 4.507139 7.858377 -2.491451
v 4.545717 7.429337 -2.743518
v 4.751927 7.429337 -4.090871
v 4.422376 7.429337 -2.762395
v 4.628586 7.429337 -4.109748
v 4.545717 5.136007 -2.743518
v 4.751927 5.136007 -4.090872
v 4.628586 5.136007 -4.109749
v 4.422376 5.136007 -2.762395
v -2.617298 5.844442 -1.191526
v -2.617298 5.844442 -1.367920
v -2.617298 7.325274 -1.367920
v 0.111111 5.844442 -1.191526
v 2.911134 5.958876 -1.367637
v 0.618334 5.958876 -1.367888
v 0.618356 7.281945 -1.191493
v 2.911156 7.281945 -1.191242
v 0.111111 5.844442 -1.367920
v 0.111111 7.325274 -1.367920
v 0.618334 7.281945 -1.367888
v 2.911134 7.281945 -1.367637
v -3.420208 -0.565513 -17.270056
v -3.420208 5.694807 -17.270056
v 1.158924 5.694807 -17.270056
v 5.738055 5.694807 -17.270056
v 5.738055 -0.565513 -17.270056
v 1.158924 -0.565513 -17.270056
v 3.413184 5.694805 1.343836
v 5.738055 5.694805 1.343836
v 5.449937 5.694805 1.077569
v 3.121595 5.694805 1.077569
v 3.413184 3.092860 1.343835
v 3.413184 -0.565515 1.343835
v 5.738055 -0.565515 1.343835
v 5.738055 3.092860 1.343835
v 1.158924 5.694804 5.922967
v 1.158924 5.694805 3.598096
v 0.861115 5.694805 3.433109
v 0.714256 5.694804 5.538230
v -3.420208 5.694805 1.343836
v -3.420208 5.694804 5.922967
v -3.087257 5.694804 5.538230
v -3.087257 5.694805 0.732641
v 1.158924 -0.565516 5.922966
v 1.158924 3.092859 5.922966
v 0.929549 2.554290 5.922966
v 0.929549 -0.026947 5.922966
v -3.420208 3.092859 5.922966
v 1.158924 -0.565516 3.598095
v 3.209089 -0.479258 1.547930
v 1.363019 -0.479259 3.394000
v 1.158924 3.092860 3.598095
v -3.087257 5.476236 5.538230
v -3.087257 5.476237 0.732641
v 5.449937 5.476237 1.077569
v 3.121595 5.476237 1.077569
v 0.714256 5.476236 5.538230
v 5.449937 5.694806 -4.130740
v 5.449937 5.694807 -16.959572
v 5.449937 5.476239 -16.959572
v 5.449937 5.476237 -4.130740
v -3.087257 5.694807 -16.959572
v 0.847017 5.694807 -16.959572
v 5.738055 5.694806 -4.130740
v -3.420208 5.694806 -4.193811
v -3.087257 5.694806 -4.193811
v 0.847017 5.476239 -16.959572
v -3.087257 5.476239 -16.959572
v -3.087257 5.476237 -4.193811
v -1.089786 5.476237 0.732641
v 0.847017 5.476237 -1.204162
v 0.861115 5.476236 3.433109
v -3.420208 3.092860 1.343835
v -3.420208 3.092861 -4.193811
v -3.420208 -0.565514 -4.193812
v -3.420208 -0.026945 -3.916423
v -3.420208 2.554292 -3.916423
v -3.420208 -0.536759 -16.696371
v -3.420208 4.825542 -16.696371
v -3.420208 4.825541 -4.767495
v -3.420208 2.596835 -4.767496
v 5.738055 4.825541 -4.709520
v 5.738055 4.825542 -16.691277
v 5.738055 3.092861 -4.130741
v 5.738055 -0.565514 -4.130741
v 5.738055 -0.536760 -4.709521
v 5.738055 2.596835 -4.709520
v 5.738055 -0.536759 -16.691277
v -3.420208 -0.536760 -4.767496
v -3.420208 -0.565515 1.343835
v -3.420208 -0.565516 5.922966
v -3.420208 2.554291 1.066446
v 3.209089 2.516676 1.547930
v 3.131063 2.516676 1.469904
v 3.131063 -0.479258 1.469904
v 1.363019 2.516675 3.394001
v 1.284993 2.516675 3.315974
v 1.284993 -0.479259 3.315973
v -3.420208 -0.026946 1.066446
v -3.246558 2.554291 1.066446
v -3.246558 -0.026946 1.066446
v -3.190832 -0.026947 5.922966
v 0.929549 -0.026947 5.749317
v -3.190832 -0.026947 5.749317
v 5.738055 2.554292 -3.856511
v 5.738055 2.554291 1.069605
v 5.564406 2.554291 1.069605
v 5.564406 2.554292 -3.856511
v -3.190832 2.554290 5.922966
v 5.738055 -0.026946 1.069605
v 5.738055 -0.026945 -3.856511
v 5.564406 -0.026946 1.069605
v 5.564406 -0.026945 -3.856511
v -3.246558 2.554292 -3.916423
v -3.246558 -0.026945 -3.916423
v 0.929549 2.554290 5.749318
v -3.190832 2.554290 5.749318
v 1.259303 2.516675 3.304875
v 1.259303 -0.479259 3.304875
v 3.105373 -0.479258 1.458806
v 3.105373 2.516676 1.458806
v 5.542306 2.554292 -4.024446
v 5.542306 2.554291 0.901670
v 5.542306 -0.026946 0.901670
v 5.542306 -0.026945 -4.024446
v -3.225850 2.554291 0.898511
v -3.225850 2.554292 -4.084358
v -3.225850 -0.026945 -4.084358
v -3.225850 -0.026946 0.898511
v -3.153787 -0.026947 5.696563
v 0.966594 -0.026947 5.696563
v 0.966594 2.554290 5.696563
v -3.153787 2.554290 5.696563
vt 0.9316 0.6552
vt 0.9316 0.8328
vt 0.8632 0.8328
vt 0.8632 0.6552
vt 0.5477 0.8931
vt 0.5477 0.7154
vt 0.6160 0.7154
vt 0.6160 0.8931
vt 0.7130 0.7154
vt 0.7130 0.8931
vt 0.0684 0.9083
vt 0.0000 0.9083
vt 0.0046 0.8783
vt 0.0638 0.8783
vt 0.8632 1.0000
vt 0.8632 0.9308
vt 0.9316 0.9308
vt 0.9316 1.0000
vt 1.0000 0.7532
vt 1.0000 0.8224
vt 0.9316 0.8224
vt 0.9316 0.7532
vt 0.0684 0.7307
vt 0.1310 0.7307
vt 0.1246 0.8013
vt 0.0748 0.8013
vt 0.8632 0.8328
vt 0.9034 0.8390
vt 0.9316 0.8675
vt 0.9316 0.6899
vt 0.9598 0.6614
vt 1.0000 0.6552
vt 0.5078 0.7307
vt 0.5078 0.9083
vt 0.4787 0.9083
vt 0.4787 0.7307
vt 0.4384 0.7307
vt 0.4732 0.7549
vt 0.4438 0.7549
vt 0.6334 0.3023
vt 0.6334 0.3322
vt 0.6307 0.3322
vt 0.6307 0.3023
vt 0.4732 0.8841
vt 0.4384 0.9083
vt 0.4438 0.8841
vt 0.3290 0.5467
vt 0.3290 0.6760
vt 0.2996 0.6760
vt 0.2996 0.5467
vt 0.3421 0.6526
vt 0.3421 0.5233
vt 0.3447 0.5233
vt 0.3447 0.6526
vt 0.6361 0.3023
vt 0.6361 0.3322
vt 0.6334 0.3322
vt 0.6334 0.3023
vt 0.3486 0.7307
vt 0.3486 0.8600
vt 0.3459 0.8600
vt 0.3459 0.7307
vt 0.5380 0.8142
vt 0.5380 0.7307
vt 0.5419 0.7307
vt 0.5419 0.8142
vt 0.0638 0.7948
vt 0.0000 0.7307
vt 0.0046 0.7948
vt 0.6307 0.3023
vt 0.6307 0.3526
vt 0.6268 0.3526
vt 0.6268 0.3023
vt 0.0748 0.8758
vt 0.1310 0.9083
vt 0.1246 0.8758
vt 0.7921 0.8562
vt 0.7921 0.9397
vt 0.7329 0.9397
vt 0.7329 0.8562
vt 0.7921 0.9308
vt 0.7921 0.8562
vt 0.8419 0.8562
vt 0.8419 0.9308
vt 0.5342 0.8887
vt 0.5342 0.8142
vt 0.5380 0.8142
vt 0.5380 0.8887
vt 0.5305 0.8211
vt 0.5305 0.8810
vt 0.5267 0.8810
vt 0.5267 0.8211
vt 0.5380 0.7307
vt 0.5380 0.8142
vt 0.5342 0.8142
vt 0.5342 0.7307
vt 0.6268 0.3023
vt 0.6268 0.3526
vt 0.6230 0.3526
vt 0.6230 0.3023
vt 0.5380 0.8887
vt 0.5380 0.8142
vt 0.5419 0.8142
vt 0.5419 0.8887
vt 0.3447 0.7287
vt 0.3447 0.6688
vt 0.3486 0.6688
vt 0.3486 0.7287
vt 0.1987 0.3778
vt 0.1987 0.7307
vt 0.0994 0.7307
vt 0.0000 0.7307
vt 0.0000 0.3778
vt 0.0994 0.3778
vt 0.3994 0.6302
vt 0.3489 0.6302
vt 0.3552 0.6244
vt 0.4057 0.6244
vt 0.9211 0.2062
vt 0.9211 0.0000
vt 0.9715 0.0000
vt 0.9715 0.2062
vt 0.4483 0.7307
vt 0.4483 0.6797
vt 0.4548 0.6761
vt 0.4580 0.7222
vt 0.5477 0.6302
vt 0.5477 0.7307
vt 0.5404 0.7222
vt 0.5404 0.6168
vt 0.9211 0.0000
vt 0.9211 0.2062
vt 0.9161 0.1759
vt 0.9161 0.0304
vt 0.8217 0.2062
vt 0.9211 0.3529
vt 0.8217 0.3529
vt 0.2491 0.3778
vt 0.2996 0.3778
vt 0.2950 0.3827
vt 0.2537 0.3827
vt 0.1987 0.5840
vt 0.1987 0.3778
vt 0.2491 0.5840
vt 0.9715 0.1054
vt 0.9715 0.0000
vt 0.9837 0.0000
vt 0.9837 0.1054
vt 0.3118 0.6760
vt 0.3118 0.7270
vt 0.2996 0.7270
vt 0.2996 0.6760
vt 0.3290 0.7282
vt 0.3290 0.6448
vt 0.3412 0.6448
vt 0.3412 0.7282
vt 0.9316 0.5033
vt 0.9316 0.3529
vt 0.9438 0.3529
vt 0.9438 0.5033
vt 0.4483 0.3529
vt 0.5477 0.3529
vt 0.5404 0.3597
vt 0.4551 0.3597
vt 0.3489 0.3529
vt 0.3552 0.3597
vt 0.3489 0.5101
vt 0.3552 0.5101
vt 0.5477 0.5087
vt 0.5404 0.5087
vt 0.6476 0.3529
vt 0.7329 0.3529
vt 0.7329 0.5019
vt 0.7329 0.6100
vt 0.6896 0.6100
vt 0.6476 0.5675
vt 0.6472 0.6692
vt 0.7329 0.7154
vt 0.6504 0.7154
vt 0.5477 0.3529
vt 0.5982 0.6175
vt 0.5477 0.6175
vt 0.5477 0.5033
vt 0.3290 0.5986
vt 0.3412 0.5986
vt 0.9715 0.2134
vt 0.9837 0.2134
vt 0.3290 0.5467
vt 0.3412 0.5467
vt 0.7130 0.8018
vt 0.7130 0.7154
vt 0.7252 0.7154
vt 0.7252 0.8018
vt 0.7130 0.9028
vt 0.7252 0.9028
vt 0.9316 0.6175
vt 0.9438 0.6175
vt 0.1450 0.2773
vt 0.1450 0.3778
vt 0.0000 0.3778
vt 0.0000 0.2773
vt 0.1450 0.1558
vt 0.3489 0.1558
vt 0.3189 0.1619
vt 0.1750 0.1619
vt 0.9715 0.3623
vt 0.9837 0.3623
vt 0.0000 0.0000
vt 0.3489 0.0000
vt 0.3473 0.0126
vt 0.0485 0.0126
vt 0.0000 0.1558
vt 0.0485 0.1432
vt 0.1727 0.1432
vt 0.6230 0.3529
vt 0.4677 0.3529
vt 0.4802 0.3039
vt 0.6105 0.3039
vt 0.4677 0.2062
vt 0.4677 0.0000
vt 0.4802 0.0016
vt 0.4802 0.1783
vt 0.6230 0.0000
vt 0.6105 0.0016
vt 0.6230 0.0000
vt 0.8217 0.0000
vt 0.8217 0.3023
vt 0.6230 0.3023
vt 0.8632 0.6552
vt 0.8632 0.8561
vt 0.7329 0.8562
vt 0.7341 0.6552
vt 0.7329 0.4785
vt 0.9316 0.4785
vt 0.9316 0.6552
vt 0.7329 0.6552
vt 0.7329 0.3529
vt 0.9316 0.3529
vt 0.3473 0.1432
vt 0.3489 0.2773
vt 0.3489 0.3778
vt 0.1987 0.7307
vt 0.2491 0.7307
vt 0.2996 0.5840
vt 0.2996 0.7307
vt 0.1750 0.2712
vt 0.3489 0.3529
vt 0.3489 0.2062
vt 0.9211 0.3529
vt 0.9715 0.3529
vt 0.5436 0.8996
vt 0.5436 0.7307
vt 0.5453 0.7307
vt 0.5453 0.8996
vt 0.2537 0.5515
vt 0.2950 0.5515
vt 0.2996 0.5467
vt 0.2996 0.3778
vt 0.3410 0.3778
vt 0.3410 0.5467
vt 0.5329 0.8211
vt 0.5329 0.8784
vt 0.5305 0.8784
vt 0.5305 0.8211
vt 0.3445 0.6526
vt 0.3445 0.7099
vt 0.3421 0.7099
vt 0.3421 0.6526
vt 0.5436 0.7307
vt 0.5436 0.8996
vt 0.5419 0.8996
vt 0.5419 0.7307
vt 0.7252 0.8609
vt 0.7252 0.7154
vt 0.7289 0.7154
vt 0.7289 0.8609
vt 0.5267 0.8211
vt 0.5267 0.7307
vt 0.5304 0.7307
vt 0.5304 0.8211
vt 0.5229 0.7307
vt 0.5229 0.8388
vt 0.5191 0.8388
vt 0.5191 0.7307
vt 0.8267 0.1759
vt 0.8217 0.0000
vt 0.8267 0.0304
vt 0.3549 0.1759
vt 0.4617 0.1759
vt 0.3489 0.0000
vt 0.3549 0.0304
vt 0.4617 0.0304
vt 0.3189 0.2712
vt 0.3459 0.8762
vt 0.2391 0.8762
vt 0.2391 0.7307
vt 0.3459 0.7307
vt 0.1310 0.7307
vt 0.2391 0.7307
vt 0.2391 0.8762
vt 0.1310 0.8762
vt 0.4384 0.8762
vt 0.3489 0.8762
vt 0.3489 0.7307
vt 0.4384 0.7307
vt 0.3447 0.6688
vt 0.3447 0.5233
vt 0.3485 0.5233
vt 0.3485 0.6688
vt 0.3410 0.5233
vt 0.3410 0.3778
vt 0.3447 0.3778
vt 0.3447 0.5233
vt 0.5116 0.8400
vt 0.5116 0.7307
vt 0.5154 0.7307
vt 0.5154 0.8400
vt 0.5078 0.8762
vt 0.5078 0.7307
vt 0.5116 0.7307
vt 0.5116 0.8762
vt 0.5229 0.8388
vt 0.5229 0.7307
vt 0.5267 0.7307
vt 0.5267 0.8388
vt 0.5342 0.7307
vt 0.5342 0.8211
vt 0.5304 0.8211
vt 0.5304 0.7307
vt 0.5191 0.7307
vt 0.5191 0.8400
vt 0.5154 0.8400
vt 0.5154 0.7307
vt 0.7327 0.7154
vt 0.7327 0.8609
vt 0.7289 0.8609
vt 0.7289 0.7154
vt 0.3447 0.5233
vt 0.3447 0.3778
vt 0.3485 0.3778
vt 0.3485 0.5233
vt 0.2996 0.5467
vt 0.2996 0.3778
vt 0.3410 0.3778
vt 0.3410 0.5467
vt 0.3459 0.8762
vt 0.2391 0.8762
vt 0.2391 0.7307
vt 0.3459 0.7307
vt 0.1310 0.7307
vt 0.2391 0.7307
vt 0.2391 0.8762
vt 0.1310 0.8762
vt 0.4384 0.8762
vt 0.3489 0.8762
vt 0.3489 0.7307
vt 0.4384 0.7307
vn -1.0000 0.0000 0.0000
vn 0.0000 0.0000 -1.0000
vn -0.0001 0.0000 1.0000
vn 0.0000 -0.0000 1.0000
vn 0.0000 -1.0000 -0.0000
vn -0.0000 1.0000 -0.0000
vn 0.7071 -0.0000 0.7071
vn 0.9885 0.0000 0.1513
vn 0.1513 0.0000 -0.9885
vn -0.1513 -0.0000 0.9885
vn 1.0000 -0.0000 0.0000
vn -1.0000 -0.0000 0.0001
vn 1.0000 0.0000 -0.0001
vn -0.9976 0.0000 -0.0696
vn -0.7215 0.0000 -0.6924
vn -0.0006 0.0000 1.0000
vn 0.0063 0.0000 -1.0000
vn -0.7071 -0.0000 0.7071
vn 0.7071 0.0000 -0.7071
usemtl None
s 1
f 1/1/1 2/2/1 3/3/1 4/4/1
f 4/5/2 3/6/2 5/7/2 6/8/2
f 6/8/2 5/7/2 7/9/2 8/10/2
f 9/11/3 2/12/4 10/13/4 11/14/4
f 4/15/5 6/16/5 12/17/5 1/18/5
f 5/19/6 3/20/6 2/21/6 9/22/6
f 12/23/3 13/24/3 14/25/3 15/26/3
f 12/17/5 6/16/5 8/27/5 16/28/5 13/29/5
f 5/19/6 9/22/6 17/30/6 18/31/6 7/32/6
f 17/33/7 13/34/7 16/35/7 18/36/7
f 7/37/8 18/36/8 19/38/8 20/39/8
f 20/40/5 19/41/5 21/42/5 22/43/5
f 18/36/8 16/35/8 23/44/8 19/38/8
f 8/45/8 7/37/8 20/39/8 24/46/8
f 16/35/8 8/45/8 24/46/8 23/44/8
f 25/47/8 22/48/8 21/49/8 26/50/8
f 19/51/9 23/52/9 26/53/9 21/54/9
f 23/55/6 24/56/6 25/57/6 26/58/6
f 24/59/10 20/60/10 22/61/10 25/62/10
f 10/63/11 27/64/11 28/65/11 29/66/11
f 12/23/3 9/11/3 11/14/4 30/67/4
f 2/12/4 1/68/4 27/69/4 10/13/4
f 1/68/4 12/23/3 30/67/4 27/69/4
f 15/70/6 14/71/6 31/72/6 32/73/6
f 9/11/3 12/23/3 15/26/3 33/74/3
f 13/24/3 17/75/3 34/76/3 14/25/3
f 17/75/3 9/11/3 33/74/3 34/76/3
f 35/77/4 36/78/4 29/79/4 28/80/4
f 37/81/3 32/82/3 31/83/3 38/84/3
f 14/85/12 34/86/12 38/87/12 31/88/12
f 11/89/5 10/90/5 29/91/5 36/92/5
f 30/93/1 11/94/1 36/95/1 35/96/1
f 34/97/5 33/98/5 37/99/5 38/100/5
f 33/101/13 15/102/13 32/103/13 37/104/13
f 27/105/6 30/106/6 35/107/6 28/108/6
f 39/109/2 40/110/2 41/111/2 42/112/2 43/113/2 44/114/2
f 45/115/6 46/116/6 47/117/6 48/118/6
f 49/119/4 50/120/4 51/121/4 52/122/4
f 53/123/6 54/124/6 55/125/6 56/126/6
f 57/127/6 58/128/6 59/129/6 60/130/6
f 61/131/4 62/132/4 63/133/4 64/134/4
f 65/135/4 62/132/4 53/136/4 58/137/4
f 58/128/6 53/123/6 56/126/6 59/129/6
f 66/138/7 50/139/7 67/140/7 68/141/7
f 62/142/11 61/143/11 66/138/11 69/144/11
f 60/145/11 59/146/11 70/147/11 71/148/11
f 48/149/2 47/150/2 72/151/2 73/152/2
f 59/153/2 56/154/2 74/155/2 70/156/2
f 75/157/1 76/158/1 77/159/1 78/160/1
f 41/161/6 40/162/6 79/163/6 80/164/6
f 54/124/6 45/115/6 48/118/6 55/125/6
f 42/165/6 41/161/6 80/164/6 76/166/6
f 81/167/6 42/165/6 76/166/6 75/168/6
f 82/169/6 57/127/6 60/130/6 83/170/6
f 84/171/6 85/172/6 86/173/6 71/174/6 87/175/6 88/176/6
f 89/177/6 87/175/6 71/174/6 70/178/6 74/179/6
f 77/180/6 84/171/6 88/176/6 73/181/6 72/182/6 78/183/6
f 89/177/6 73/181/6 88/176/6 87/175/6
f 56/154/14 55/184/14 89/185/14 74/155/14
f 83/186/11 60/145/11 71/148/11 86/187/11
f 55/184/15 48/188/15 73/189/15 89/185/15
f 80/190/4 79/191/4 85/192/4 84/193/4
f 76/194/4 80/190/4 84/193/4 77/195/4
f 46/116/6 81/167/6 75/168/6 47/117/6
f 47/196/1 75/157/1 78/160/1 72/197/1
f 90/198/1 65/199/1 58/200/1 57/201/1
f 91/202/1 92/203/1 93/204/1 94/205/1
f 79/206/11 83/186/11 86/187/11 85/207/11
f 40/162/6 82/169/6 83/170/6 79/163/6
f 40/208/1 39/209/1 95/210/1 96/211/1
f 91/202/1 82/212/1 97/213/1 98/214/1
f 42/215/11 81/216/11 99/217/11 100/218/11
f 101/219/11 102/220/11 103/221/11 104/222/11
f 43/223/11 42/215/11 100/218/11 105/224/11
f 82/212/1 40/208/1 96/211/1 97/213/1
f 95/225/16 105/226/16 100/227/16 96/228/16
f 96/229/5 100/230/5 99/231/5 97/232/5
f 98/233/17 104/234/17 103/235/17 106/236/17
f 97/237/17 99/238/17 104/234/17 98/233/17
f 81/216/11 101/219/11 104/222/11 99/217/11
f 92/203/1 91/202/1 98/214/1 106/239/1
f 57/201/1 82/212/1 91/202/1 90/198/1
f 107/240/1 108/241/1 65/199/1 90/198/1
f 53/242/11 62/142/11 69/144/11 54/243/11
f 54/243/7 69/144/7 49/244/7 45/245/7
f 90/198/1 91/202/1 94/205/1 109/246/1
f 81/216/11 46/247/11 52/248/11 101/219/11
f 45/249/4 49/119/4 52/122/4 46/250/4
f 67/251/18 110/252/18 111/253/18 112/254/18
f 49/244/7 69/144/7 113/255/7 110/256/7
f 69/144/7 66/138/7 68/141/7 113/255/7
f 50/139/7 49/244/7 110/256/7 67/140/7
f 114/257/7 115/258/7 112/259/7 111/260/7
f 68/261/6 67/262/6 112/263/6 115/264/6
f 110/265/5 113/266/5 114/267/5 111/268/5
f 113/269/19 68/270/19 115/271/19 114/272/19
f 116/273/2 109/274/2 117/275/2 118/276/2
f 119/277/6 64/278/6 120/279/6 121/280/6
f 122/281/5 123/282/5 124/283/5 125/284/5
f 62/132/4 65/135/4 126/285/4 63/133/4
f 65/135/4 108/286/4 119/287/4 126/285/4
f 101/219/11 52/248/11 123/288/11 122/289/11
f 108/286/4 61/131/4 64/134/4 119/287/4
f 52/248/11 51/290/11 127/291/11 123/288/11
f 102/220/11 101/219/11 122/289/11 128/292/11
f 92/203/1 107/240/1 116/293/1 93/204/1
f 51/290/11 102/220/11 128/292/11 127/291/11
f 107/240/1 90/198/1 109/246/1 116/293/1
f 125/294/11 124/295/11 129/296/11 130/297/11
f 117/298/1 131/299/1 132/300/1 118/301/1
f 121/302/4 120/303/4 133/304/4 134/305/4
f 94/306/4 93/307/4 132/308/4 131/309/4
f 64/310/1 63/311/1 133/312/1 120/313/1
f 109/314/5 94/315/5 131/316/5 117/317/5
f 126/318/11 119/319/11 121/320/11 134/321/11
f 127/322/6 128/323/6 130/324/6 129/325/6
f 63/326/5 126/327/5 134/328/5 133/329/5
f 93/330/6 116/331/6 118/332/6 132/333/6
f 123/334/2 127/335/2 129/336/2 124/337/2
f 128/338/4 122/339/4 125/340/4 130/341/4
f 135/342/7 136/343/7 137/344/7 138/345/7
f 139/346/11 140/347/11 141/348/11 142/349/11
f 143/350/1 144/351/1 145/352/1 146/353/1
f 147/354/4 148/355/4 149/356/4 150/357/4
